<svg xmlns="http://www.w3.org/2000/svg" width="108" height="22" viewBox="0 0 108 22" fill="none">
  <path d="M21.8477 7.30664C23.6785 7.30664 24.6049 7.77137 25.4727 8.72168C26.3402 9.66092 26.6857 10.9924 26.5078 12.7148C26.3299 14.4265 25.6984 15.7587 24.6289 16.709C23.6676 17.5529 22.1445 18.0297 20.6475 18.1123L19.8994 14.5352H20.7539C21.7995 14.5113 22.6675 13.7279 22.7979 12.6934C22.8089 12.6108 22.8086 12.5259 22.8086 12.4434C22.7975 11.541 22.0478 10.828 21.1455 10.8516H19.4229L18.21 22H14.2402L15.832 7.2959H15.834L21.8477 7.30664ZM65.041 12.3115L67.1572 7.2959H71.1865L64.7676 21.998H60.8818L62.4854 18.2422L60.0381 7.2959H63.9238L65.041 12.3115ZM34.4346 6.97559C37.656 6.97559 39.9843 9.57849 39.6523 12.7871C39.3185 15.9958 36.4305 18.5996 33.209 18.5996C29.9876 18.5995 27.6463 15.9957 27.9912 12.7871C28.3361 9.57847 31.2131 6.97562 34.4346 6.97559ZM2.40137 13.6084C3.74418 13.6084 4.82434 14.678 4.81348 16.0098C4.81348 17.3398 3.73116 18.4229 2.41211 18.4229C1.09336 18.4227 0.000251149 17.3402 0 16.0215C0 14.7024 1.06951 13.6084 2.40137 13.6084ZM46.4619 7.27441H48.1738L48.9346 10.8037L46.7715 10.8154C45.9041 10.8395 45.1778 11.492 45.0713 12.3594L44.4424 18.2666H40.4609L41.1143 12.0977C41.3876 9.43569 43.7891 7.27246 46.4639 7.27246L46.4619 7.27441ZM93.0342 6.6416C93.7478 6.6306 94.4601 6.74784 95.126 6.98633C96.3255 7.40286 97.2886 8.3292 97.7637 9.50684C98.0259 10.1488 98.1675 10.8384 98.1914 11.5391C98.2024 11.871 98.1911 12.2052 98.1562 12.5371C98.1214 12.869 98.0738 13.2142 97.9785 13.5352H90.6807C90.6697 13.5829 90.6561 13.631 90.6689 13.6787C90.68 13.9171 90.86 14.106 90.9902 14.249C91.1205 14.3921 91.2745 14.5229 91.4414 14.6055C91.6194 14.7009 91.8109 14.7592 92.0127 14.7959C92.1904 14.8307 92.3681 14.8437 92.5586 14.8438C92.8906 14.8438 93.225 14.7852 93.5332 14.666C93.8542 14.5468 94.1385 14.3576 94.377 14.1191L97.4795 16.2822C96.8503 16.9958 96.0537 17.529 95.1494 17.8262C94.2578 18.1234 93.3182 18.2666 92.3789 18.2666C91.6544 18.2666 90.9299 18.1607 90.2402 17.959C89.5873 17.7682 88.9801 17.4469 88.4463 17.0195C87.9234 16.5921 87.4954 16.0691 87.1982 15.4619C86.8662 14.785 86.687 14.0364 86.6631 13.2861C86.6282 12.3945 86.7585 11.5158 87.0557 10.6719C87.329 9.88668 87.7693 9.16205 88.3398 8.55664C88.9103 7.95133 89.6108 7.47435 90.3721 7.15332C91.216 6.80842 92.1187 6.63059 93.0342 6.6416ZM55.8535 7.2959H58.6104L59.3955 10.8252H55.4736L54.6885 18.2422H50.6943L51.4902 10.8252H50.3496L49.5771 7.2959H51.8721L52.0742 5.31055L56.1982 4.02637L55.8535 7.2959ZM84.9219 18.2217L84.9258 18.2285V18.2373C83.3187 18.2336 81.8815 18.2318 80.2744 18.2373C79.2122 15.7992 77.7336 12.343 76.6494 9.91406C76.4329 12.6566 76.1419 15.4909 75.874 18.2188H71.4189C71.9583 12.6564 72.4947 7.12532 73.0322 1.57031H77.5391C77.5391 1.57076 77.5397 1.57239 77.541 1.5752L81.3223 10.2402L84.916 18.207L81.7549 5.2793C81.8668 4.04292 81.977 2.80657 82.0742 1.56836H86.5273L84.9219 18.2217ZM8.68652 4.57617H7.03418C6.33344 4.61286 5.77306 5.14622 5.69043 5.83594C5.67944 5.87073 5.67969 5.90758 5.67969 5.94238C5.65584 6.56048 6.1437 7.08332 6.76172 7.10742L8.54688 7.10547C11.5886 7.10547 13.776 9.55522 13.4678 12.5859C13.1594 15.6165 10.4253 18.0762 7.38184 18.0762H6.89453L5.96777 13.8564H7.62109C8.3217 13.8196 8.88129 13.2863 8.96387 12.5967C8.97487 12.5618 8.97461 12.5251 8.97461 12.4902C8.99846 11.8739 8.51069 11.3619 7.89258 11.3379H6.09766C3.0545 11.3377 0.844286 8.87802 1.16504 5.84766C1.48609 2.81694 4.2199 0.356445 7.25977 0.356445H7.74707L8.68652 4.57617ZM104.872 7.02148H107.07L107.843 10.5625H104.504L103.708 17.9453H99.7246L100.521 10.5625H99.3799L98.6074 7.02148H100.89L101.104 5.03711L105.596 3.75293L104.872 7.02148ZM34.0527 10.6113C32.8879 10.6353 31.9136 11.516 31.7705 12.668C31.7595 12.7615 31.7488 12.8568 31.7598 12.9521C31.7836 13.9502 32.6151 14.7465 33.626 14.7227C34.7907 14.6986 35.7651 13.818 35.9082 12.666C35.9192 12.5725 35.9189 12.4772 35.9189 12.3818C35.8951 11.3838 35.0636 10.5875 34.0527 10.6113ZM92.8301 9.63672C92.5679 9.63677 92.3186 9.68492 92.082 9.78027C91.8803 9.8628 91.6894 9.99453 91.5225 10.1357C91.3794 10.2659 91.249 10.4201 91.1426 10.5869C91.06 10.73 90.9888 10.885 90.9521 11.0391L94.2686 11.0625V11.0645C94.2796 11.0168 94.2793 10.9686 94.2793 10.9209V10.8018C94.2792 10.4698 94.1364 10.1598 93.876 9.95801C93.6265 9.74345 93.2703 9.63672 92.8301 9.63672ZM12.2178 0C13.5571 0 14.6434 1.0799 14.6436 2.41211C14.6436 3.74448 13.5572 4.8252 12.2178 4.8252C10.8785 4.82501 9.79297 3.74437 9.79297 2.41211C9.79316 1.08002 10.8786 0.000183216 12.2178 0Z" fill="white"/>
</svg>